<svg xmlns="http://www.w3.org/2000/svg" width="99" height="76" viewBox="0 0 99 76"><path fill="#FFF" d="M21.6 20.35c.43 0 .785.213 1.095.634.306.423.47.94.47 1.558 0 .615-.164 1.136-.47 1.554-.31.425-.666.634-1.095.634-.445 0-.835-.21-1.142-.634-.31-.418-.47-.94-.47-1.554 0-.618.16-1.135.47-1.558.305-.42.695-.633 1.142-.633zm5.495-5.685c1.192 1.296 1.797 2.868 1.797 4.72 0 1.194-.137 2.272-.414 3.232-.28.952-.63 1.732-1.045 2.33-.42.6-.94 1.127-1.556 1.58-.618.457-1.184.787-1.702.996-.52.21-1.11.372-1.774.49-.666.112-1.16.176-1.506.197-.34.013-.7.022-1.095.022-.088 0-.388.006-.875.023-.48.02-.895.026-1.217.026s-.736-.005-1.218-.025c-.485-.017-.786-.023-.874-.023-.393 0-.754-.01-1.094-.022-.348-.02-.84-.084-1.507-.197-.675-.115-1.256-.28-1.775-.49-.518-.21-1.086-.54-1.7-.996-.62-.453-1.137-.98-1.558-1.58-.417-.598-.766-1.378-1.045-2.33-.276-.96-.414-2.038-.414-3.233 0-1.85.605-3.424 1.797-4.72-.13-.065-.135-.714-.01-1.944.1-1.232.36-2.368.79-3.406 1.492.158 3.34 1.005 5.545 2.526.744-.19 1.76-.293 3.063-.293 1.36 0 2.383.103 3.064.294 1.005-.678 1.966-1.23 2.884-1.65.933-.418 1.607-.666 2.028-.73l.633-.145c.43 1.037.693 2.173.79 3.407.124 1.228.12 1.877-.012 1.943zm-9.34 12.495c2.698 0 4.722-.323 6.107-.97 1.366-.647 2.063-1.98 2.063-3.99 0-1.166-.436-2.14-1.314-2.92-.442-.42-.977-.68-1.578-.776-.6-.098-1.517-.098-2.75 0-1.227.1-2.07.145-2.527.145-.614 0-1.277-.03-2.106-.096-.832-.064-1.483-.104-1.956-.125-.47-.016-.973.042-1.53.17-.552.132-1.005.358-1.364.68-.832.75-1.262 1.72-1.262 2.92 0 2.01.68 3.343 2.045 3.99 1.358.646 3.376.97 6.075.97h.097zm-3.888-6.81c.428 0 .786.213 1.095.634.307.423.47.94.47 1.558 0 .615-.163 1.136-.47 1.554-.308.425-.667.634-1.095.634-.446 0-.834-.21-1.145-.634-.307-.418-.47-.94-.47-1.554 0-.618.163-1.135.47-1.558.31-.42.697-.633 1.145-.633zM78.734 12.458c0-.144.02-.455.06-.93.044-.48.224-.978.547-1.5.32-.523.84-.992 1.563-1.407C81.62 8.21 82.66 8 84.016 8h3.82v4.163H85.04c-.278 0-.536.104-.77.31-.23.204-.35.4-.35.58v2.59h3.914c-.04.508-.087 1-.138 1.477l-.155 1.258c-.062.425-.124.82-.187 1.183H83.89v11.543h-5.157V19.56h-2.516v-3.916h2.516v-3.186zM57.81 11.078c1.092-.67 1.814-1.587 2.17-2.752-1.064.564-2.124.95-3.18 1.164-.95-1.022-2.155-1.542-3.598-1.542-1.41 0-2.603.495-3.576 1.458-.967.97-1.455 2.15-1.455 3.524 0 .418.054.792.158 1.108-4.16-.142-7.605-1.87-10.318-5.19-.46.813-.69 1.64-.69 2.497 0 1.76.744 3.154 2.227 4.178-.846-.07-1.59-.285-2.226-.635 0 1.256.37 2.306 1.11 3.23.743.914 1.696 1.497 2.86 1.746-.42.108-.866.16-1.323.16-.422 0-.72-.036-.898-.112.31 1.024.897 1.855 1.745 2.49.846.638 1.818.977 2.91 1.005-1.8 1.414-3.86 2.114-6.192 2.114-.57 0-.975-.007-1.22-.052 2.295 1.49 4.85 2.23 7.678 2.23 2.896 0 5.45-.732 7.678-2.2 2.225-1.457 3.866-3.256 4.922-5.374 1.06-2.116 1.585-4.318 1.585-6.618v-.633c1.025-.77 1.854-1.64 2.49-2.6-.922.398-1.873.668-2.855.805z"/><path fill="#3D81C6" d="M21.6 57.93c.428 0 .784.213 1.094.634.306.423.47.94.47 1.558 0 .614-.164 1.136-.47 1.554-.31.425-.666.634-1.095.634-.446 0-.835-.21-1.143-.634-.31-.418-.47-.94-.47-1.554 0-.618.16-1.135.47-1.558.306-.42.696-.633 1.142-.633zm5.495-5.686c1.192 1.295 1.797 2.868 1.797 4.72 0 1.194-.137 2.272-.414 3.232-.28.95-.63 1.73-1.045 2.33-.42.6-.94 1.127-1.556 1.58-.618.457-1.184.786-1.702.995-.52.212-1.11.372-1.774.49-.667.113-1.16.177-1.506.197-.34.013-.7.02-1.095.02-.088 0-.388.008-.875.024-.48.022-.894.027-1.217.027-.323 0-.737-.006-1.218-.026-.485-.016-.786-.022-.874-.022-.393 0-.754-.01-1.095-.02-.347-.022-.84-.085-1.505-.197-.676-.115-1.256-.278-1.775-.49-.518-.208-1.087-.537-1.7-.995-.62-.452-1.137-.98-1.558-1.578-.417-.6-.766-1.38-1.045-2.33-.276-.96-.414-2.04-.414-3.234 0-1.85.605-3.424 1.797-4.72-.13-.064-.136-.713-.012-1.942.1-1.232.362-2.368.79-3.407 1.493.16 3.34 1.005 5.546 2.527.744-.19 1.76-.293 3.063-.293 1.36 0 2.382.103 3.064.293 1.005-.677 1.967-1.23 2.884-1.65.933-.418 1.607-.665 2.028-.73l.633-.144c.43 1.036.693 2.172.792 3.406.123 1.228.12 1.877-.012 1.942zm-9.34 12.495c2.697 0 4.72-.324 6.106-.972 1.366-.646 2.064-1.98 2.064-3.987 0-1.167-.435-2.14-1.314-2.92-.443-.42-.978-.68-1.58-.777-.598-.097-1.516-.097-2.75 0-1.227.1-2.07.145-2.527.145-.614 0-1.277-.03-2.106-.095-.83-.063-1.482-.104-1.954-.125-.47-.014-.973.044-1.53.173-.552.133-1.006.358-1.364.68-.833.75-1.263 1.722-1.263 2.922 0 2.01.68 3.342 2.045 3.987 1.358.646 3.376.97 6.074.97h.098zm-3.888-6.81c.428 0 .786.213 1.094.634.308.423.47.94.47 1.558 0 .614-.162 1.136-.47 1.554-.306.425-.665.634-1.093.634-.446 0-.834-.21-1.145-.634-.307-.418-.47-.94-.47-1.554 0-.618.163-1.135.47-1.558.31-.42.697-.633 1.145-.633z"/><path fill="#3B5998" d="M78.734 50.037c0-.143.02-.455.06-.93.044-.48.224-.977.547-1.5.32-.523.84-.992 1.563-1.406.72-.413 1.758-.62 3.113-.62h3.82v4.162H85.04c-.278 0-.536.105-.77.31-.23.204-.35.4-.35.58v2.59h3.914c-.04.51-.087 1-.138 1.478l-.155 1.258c-.062.424-.124.818-.187 1.182H83.89v11.543h-5.157V57.14h-2.516v-3.917h2.516v-3.186z"/><path fill="#28AAE1" d="M57.926 48.675c1.1-.675 1.825-1.597 2.183-2.768-1.07.568-2.136.956-3.198 1.17-.956-1.027-2.168-1.55-3.618-1.55-1.418 0-2.616.5-3.595 1.466-.974.977-1.464 2.16-1.464 3.544 0 .42.054.795.158 1.114-4.183-.142-7.646-1.88-10.375-5.218-.463.817-.694 1.65-.694 2.51 0 1.77.747 3.172 2.237 4.2-.85-.07-1.6-.285-2.237-.638 0 1.264.372 2.32 1.115 3.248.748.92 1.707 1.506 2.878 1.756-.424.108-.872.16-1.332.16-.424 0-.725-.036-.903-.112.313 1.03.903 1.864 1.756 2.503.85.64 1.827.98 2.925 1.01-1.81 1.42-3.882 2.125-6.226 2.125-.575 0-.98-.008-1.228-.053 2.308 1.5 4.877 2.243 7.72 2.243 2.91 0 5.48-.737 7.717-2.21 2.235-1.468 3.887-3.276 4.947-5.405 1.065-2.128 1.594-4.342 1.594-6.654v-.637c1.032-.775 1.866-1.65 2.504-2.613-.924.4-1.88.67-2.868.808z"/></svg>